<?xml version="1.0" encoding="iso-8859-1"?>
<!-- Uploaded to: SVG Repo, www.svgrepo.com, Generator: SVG Repo Mixer Tools -->
<svg version="1.1" id="Layer_1" xmlns="http://www.w3.org/2000/svg" xmlns:xlink="http://www.w3.org/1999/xlink" 
	 viewBox="0 0 511.978 511.978" xml:space="preserve">
<g>
	<path style="fill:#E9573F;" d="M168.774,437.732c-3.734,0-7.359-1.969-9.312-5.453c-2.875-5.14-1.062-11.64,4.094-14.515
		l38.295-21.468c5.141-2.875,11.64-1.047,14.515,4.094c2.875,5.14,1.047,11.64-4.094,14.515l-38.295,21.468
		C172.336,437.294,170.539,437.732,168.774,437.732z"/>
	<path style="fill:#E9573F;" d="M331.485,443.232c-0.359,0-0.734-0.016-1.108-0.062c-5.859-0.594-10.108-5.844-9.515-11.703
		l5.062-48.576c0.609-5.875,5.858-10.124,11.718-9.515c5.859,0.608,10.109,5.858,9.5,11.702l-5.062,48.592
		C341.516,439.169,336.891,443.232,331.485,443.232z"/>
	<path style="fill:#E9573F;" d="M385.139,408.717c-0.969,0-1.969-0.141-2.968-0.422l-48.593-14.062
		c-5.671-1.641-8.937-7.562-7.28-13.219c1.625-5.656,7.546-8.905,13.202-7.281l48.607,14.062c5.656,1.656,8.906,7.562,7.281,13.219
		C394.046,405.686,389.764,408.717,385.139,408.717z"/>
	<path style="fill:#E9573F;" d="M140.603,373.328h-13.671c-5.906,0-10.671-4.781-10.671-10.688c0-5.875,4.766-10.656,10.671-10.656
		h13.671c5.891,0,10.672,4.781,10.672,10.656C151.275,368.548,146.494,373.328,140.603,373.328z"/>
</g>
<g>
	<path style="fill:#434A54;" d="M469.324,501.323h-85.341c-5.89,0-10.655-4.781-10.655-10.688c0-5.874,4.766-10.655,10.655-10.655
		h85.341c5.875,0,10.656,4.781,10.656,10.655C479.98,496.542,475.199,501.323,469.324,501.323z"/>
	<path style="fill:#434A54;" d="M127.994,501.323H42.67c-5.891,0-10.671-4.781-10.671-10.688c0-5.874,4.781-10.655,10.671-10.655
		h85.325c5.891,0,10.671,4.781,10.671,10.655C138.666,496.542,133.885,501.323,127.994,501.323z"/>
	<path style="fill:#434A54;" d="M42.654,501.323c-2.547,0-5.125-0.938-7.156-2.781c-4.375-3.969-4.688-10.718-0.719-15.062
		l84.247-92.684c3.968-4.375,10.718-4.688,15.062-0.719c4.375,3.969,4.687,10.703,0.719,15.062L50.56,497.823
		C48.467,500.135,45.56,501.323,42.654,501.323z"/>
	<path style="fill:#434A54;" d="M469.324,501.323c-2.906,0-5.797-1.188-7.906-3.5l-84.168-92.59
		c-3.953-4.374-3.641-11.108,0.719-15.062c4.358-3.969,11.108-3.656,15.062,0.703l84.185,92.605
		c3.953,4.344,3.641,11.093-0.719,15.062C474.449,500.385,471.886,501.323,469.324,501.323z"/>
</g>
<path style="fill:#FC6E51;" d="M219.757,417.546c-6.203,0-11.265-0.531-15.421-1.625c-29.468-7.781-50.686-18.202-63.06-30.937
	c-10.531-10.812-11.343-19.827-11.343-22.343c0-0.406,0.031-0.844,0.078-1.25c2.047-17.125,10.453-31.687,24.327-42.075
	c13.171-9.859,30.14-15.078,49.061-15.078c1.891,0,3.812,0.047,5.734,0.156c0.828,0.031,1.734,0.062,2.672,0.062
	c24.077,0,72.028-13.781,77.325-15.312c8.219-3.312,61.513-24.413,86.34-24.413c1.734,0,3.359,0.094,4.844,0.289
	c22.577,2.938,33.64,8.781,34.812,9.438c2.531,1.406,4.391,3.781,5.141,6.578c0.75,2.796,0.312,5.765-1.172,8.249l-7.453,12.406
	l0.531,0.766c2.281,3.344,2.469,7.688,0.5,11.219c-6.688,11.967-20.203,25.326-34.515,39.466
	c-12.874,12.719-26.187,25.874-32.483,36.343c-1.375,2.297-3.578,4-6.156,4.75C336.251,395.172,259.083,417.546,219.757,417.546z"/>
<g>
	<path style="fill:#E6E9ED;" d="M255.989,490.635c-0.031,0-0.047,0.016-0.062,0.016v-0.016c-62.653,0-121.557-24.405-165.868-68.715
		C45.748,377.594,21.343,318.676,21.343,255.99c0-5.891-4.781-10.664-10.672-10.664C4.781,245.326,0,250.098,0,255.99
		c0,34.561,6.781,68.09,20.124,99.651c12.906,30.468,31.342,57.857,54.857,81.356c23.514,23.515,50.888,41.967,81.355,54.856
		c31.562,13.344,65.061,20.125,99.59,20.125l0,0c0.016,0,0.031,0,0.062,0c5.906,0,10.672-4.781,10.672-10.656
		C266.661,495.417,261.895,490.635,255.989,490.635z"/>
	<path style="fill:#E6E9ED;" d="M511.978,255.99c0-34.554-6.766-68.083-20.124-99.645c-12.89-30.483-31.342-57.865-54.841-81.371
		c-23.515-23.499-50.89-41.96-81.372-54.85c-31.56-13.351-65.09-20.123-99.652-20.123c-5.89,0-10.656,4.772-10.656,10.663
		s4.766,10.672,10.656,10.672c62.686,0,121.62,24.405,165.932,68.723c44.325,44.327,68.73,103.255,68.73,165.932l0,0l0,0
		c0,5.89,4.766,10.663,10.671,10.663C507.197,266.652,511.978,261.88,511.978,255.99L511.978,255.99L511.978,255.99z"/>
</g>
<rect x="234.659" y="65.17" style="fill:#F6BB42;" width="42.67" height="381.64"/>
<path style="fill:#E9573F;" d="M326.189,309.332c-2.171,0-4.39-0.688-6.28-2.062c-2.156-1.578-12.983-10.062-14.452-22.297
	c-0.766-6.343,1.125-12.421,5.468-17.585c5.094-6.03,11.688-9.351,19.062-9.601c15.202-0.5,28.249,12.538,29.687,14.03
	c4.094,4.234,3.969,10.984-0.281,15.077c-4.219,4.094-10.969,3.969-15.062-0.25c-3.078-3.125-9.547-7.702-13.656-7.53
	c-0.624,0.016-1.78,0.062-3.437,2.031c-0.656,0.797-0.625,1.094-0.609,1.281c0.281,2.358,4.03,6.28,5.858,7.624
	c4.766,3.469,5.812,10.141,2.328,14.906C332.719,307.801,329.486,309.332,326.189,309.332z"/>
<path style="fill:#434A54;" d="M351.985,298.643c0,5.906,4.781,10.688,10.672,10.688c5.89,0,10.671-4.781,10.671-10.688
	c0-5.875-4.781-10.656-10.671-10.656C356.766,287.987,351.985,292.768,351.985,298.643z"/>
<path style="fill:#FFCE54;" d="M255.989,458.638c-54.123,0-105.026-21.062-143.307-59.342
	c-38.263-38.28-59.341-89.183-59.341-143.306c0-54.131,21.078-105.027,59.341-143.299c38.281-38.279,89.184-59.357,143.307-59.357
	c54.139,0,105.027,21.078,143.307,59.357c38.28,38.271,59.357,89.168,59.357,143.299c0,54.123-21.077,105.026-59.357,143.307
	C361.016,437.576,310.128,458.638,255.989,458.638z M255.989,74.661c-48.435,0-93.965,18.865-128.213,53.114
	c-34.249,34.241-53.107,79.778-53.107,128.214s18.858,93.964,53.107,128.213s79.778,53.123,128.213,53.123
	c48.437,0,93.965-18.874,128.213-53.123c34.25-34.249,53.124-79.777,53.124-128.213s-18.874-93.973-53.124-128.214
	C349.954,93.527,304.426,74.661,255.989,74.661z"/>
</svg>